<svg width="84" height="36" viewBox="0 0 84 36" fill="none" xmlns="http://www.w3.org/2000/svg">
<g clip-path="url(#clip0_8266_724)">
<path d="M73.9117 17.0815L73.8746 17.1187C74.1348 16.4125 74.6551 16.1523 75.1011 16.1523C75.733 16.1523 76.2905 16.6355 76.2905 17.3417C76.2905 17.4904 76.2905 17.6762 76.2162 17.8992C74.9153 21.2444 72.1648 22.9541 69.4887 23.2143C68.2622 25.2957 66.2551 26.8196 63.3931 26.8196C59.3046 26.8196 57.4834 23.586 57.4834 20.055C57.4834 15.7063 60.2339 10.8744 64.8427 10.8744C65.8462 10.8744 66.7011 11.0975 67.4073 11.3948C69.4887 12.1753 70.8268 14.8886 70.8268 17.7877C70.8268 18.7169 70.7524 19.6461 70.5294 20.5382C71.9047 20.055 73.2055 18.9399 73.9117 17.0815ZM66.1436 13.9222V13.8851C65.3259 13.8851 64.8427 14.9629 64.8427 16.2638C64.8427 18.1594 65.8834 19.9063 67.5188 20.5382C67.779 19.7205 67.8905 18.7913 67.8905 17.7134C67.8905 15.632 67.2586 13.9222 66.1436 13.9222ZM63.4303 24.1063C64.471 24.1063 65.5117 23.6603 66.3294 22.7311C63.9135 21.6532 62.3896 19.1258 62.3896 16.7098C62.3896 15.8921 62.5383 15.0373 62.7613 14.2939C61.2746 15.5205 60.4197 17.9364 60.4197 20.055C60.4197 22.8054 61.7206 24.1063 63.4303 24.1063Z" fill="black"/>
<path d="M58.0573 17.0815L58.0201 17.1187C58.2803 16.4125 58.7263 16.1152 59.1723 16.1152C59.8042 16.1152 60.436 16.6727 60.436 17.3789C60.436 17.5647 60.3989 17.7134 60.3245 17.8992C58.875 21.4302 56.7192 25.5559 53.2626 27.9718L53.1883 28.7152C52.7794 33.1754 50.5122 36.0001 47.6502 36.0001C45.4944 36.0001 44.2307 34.5134 44.2307 32.7665C44.2307 29.6072 47.4643 28.455 50.475 26.5223C50.5493 25.7417 50.5865 24.8497 50.6236 23.8461C49.1369 25.4815 47.5387 26.1506 46.1263 26.1506C43.3015 26.1506 40.9971 23.8461 40.9971 20.3152C40.9971 14.8886 44.5652 11.3205 48.5422 11.3205H48.5794C51.2927 11.3205 54.1918 12.77 54.1918 15.3718C54.1918 16.2267 53.8201 20.8727 53.5228 24.478C55.5298 22.5824 57.2024 19.4975 58.0573 17.0815ZM46.5351 23.4745C47.9104 23.4745 49.7688 22.6196 50.921 18.4196C51.1068 17.4904 51.2183 16.6727 51.1812 15.7063C50.9582 14.7028 50.1033 14.1081 48.8767 14.1081C46.3493 14.1081 43.9334 16.524 43.9334 20.2037C43.9334 22.4338 44.9741 23.4745 46.5351 23.4745ZM47.9475 33.2869H47.9847C48.7652 33.2869 49.6201 32.7665 50.1776 29.4214C48.5422 30.3877 47.0183 31.3541 47.0183 32.5063C47.0183 32.9895 47.39 33.2869 47.9475 33.2869Z" fill="black"/>
<path d="M41.649 17.0815L41.6119 17.1187C41.872 16.4125 42.3924 16.1523 42.8384 16.1523C43.4703 16.1523 44.0278 16.6355 44.0278 17.3417C44.0278 17.4904 44.0278 17.6762 43.9535 17.8992C42.6526 21.2444 39.9021 22.9541 37.226 23.2143C35.9995 25.2957 33.9924 26.8196 31.1304 26.8196C27.0419 26.8196 25.2207 23.586 25.2207 20.055C25.2207 15.7063 27.9711 10.8744 32.58 10.8744C33.5835 10.8744 34.4384 11.0975 35.1446 11.3948C37.226 12.1753 38.5641 14.8886 38.5641 17.7877C38.5641 18.7169 38.4897 19.6461 38.2667 20.5382C39.642 20.055 40.9428 18.9399 41.649 17.0815ZM33.8809 13.9222V13.8851C33.0632 13.8851 32.58 14.9629 32.58 16.2638C32.58 18.1594 33.6207 19.9063 35.2561 20.5382C35.5163 19.7205 35.6278 18.7913 35.6278 17.7134C35.6278 15.632 34.9959 13.9222 33.8809 13.9222ZM31.1676 24.1063C32.2083 24.1063 33.249 23.6603 34.0667 22.7311C31.6508 21.6532 30.1269 19.1258 30.1269 16.7098C30.1269 15.8921 30.2756 15.0373 30.4986 14.2939C29.0119 15.5205 28.157 17.9364 28.157 20.055C28.157 22.8054 29.4579 24.1063 31.1676 24.1063Z" fill="black"/>
<path d="M27.1099 15.9083C26.5895 15.9083 26.1435 16.1685 25.8461 16.8747C24.8798 19.3278 22.8726 23.4907 20.8283 23.4907C19.5411 23.4907 18.545 23.1996 17.5384 22.9054C16.5105 22.605 15.4717 22.3013 14.1008 22.3013C13.6176 22.3013 12.9485 22.3757 12.3167 22.4872C14.2202 19.8914 14.9314 16.7477 15.6205 10.8054C14.323 10.7228 13.2676 10.4831 12.4983 10.241C11.6767 17.7775 10.7436 20.6511 7.33603 23.4907C6.89 23.8624 6.66699 24.3828 6.66699 24.9032C6.66699 25.7209 7.3732 26.4271 8.26526 26.4271C8.56261 26.4271 8.89712 26.3156 9.23164 26.1669C11.1273 25.312 12.2795 25.089 13.6919 25.089C14.5901 25.089 15.6648 25.3459 16.8155 25.6208C18.1409 25.9376 19.567 26.2784 20.9399 26.2784C23.9505 26.2784 25.9205 23.3421 28.1134 17.6552C28.225 17.4694 28.2621 17.2464 28.2621 17.0605C28.2621 16.3543 27.7046 15.9083 27.1099 15.9083Z" fill="black"/>
<path fill-rule="evenodd" clip-rule="evenodd" d="M12.6871 8.70287C13.3602 8.93784 14.4111 9.2114 15.7735 9.29233L15.9965 9.29222C20.1966 9.29222 22.9471 6.6904 22.9471 3.56821C22.9471 1.56109 21.386 0 19.193 0C16.2567 0 14.2124 2.00712 13.1717 5.98419C11.8708 5.27798 10.9787 4.01424 10.5327 2.41598C10.3097 1.63543 9.82647 1.15223 9.15742 1.15223C8.33971 1.15223 7.81934 1.78411 7.81934 2.63899C7.81934 5.16648 9.7893 7.58245 12.6885 8.69752L12.6871 8.70287ZM16.2195 6.57889C16.777 4.01424 17.6691 2.78767 18.8585 2.78767C19.4904 2.78767 19.8992 3.15936 19.8992 3.8284C19.8992 5.05497 18.5983 6.50455 16.2195 6.57889Z" fill="black"/>
</g>
<defs>
<clipPath id="clip0_8266_724">
<rect width="70" height="36" fill="white" transform="translate(6.66699)"/>
</clipPath>
</defs>
</svg>
